# xmcd
#
# Track frame offsets:
#	180
#	23108
#	43873
#	65324
#	93612
#	112648
#	139231
#	163032
#	188366
#	207522
#	228230
#	249852
#	272012
#	293986
#	308497
#
# Disc length: 4361
#
# Revision: 1
# Processed by: cddbd v1.5.1PL0 Copyright (c) Steve Scherf et al.
# Submitted via: ExactAudioCopy v0.95a5
# Normalized: r0:TDELIM( - )
#
DISCID=c611070f
DTITLE=Various Artist - Twisted R&B Hitz
DYEAR=1996
DGENRE=R&B
TTITLE0=Keith Sweat - Twisted (Flavahood Sexual Mix)
TTITLE1=Jordan Hill - For The Love Of You
TTITLE2=The Braxtons - I'd Still Say Yes
TTITLE3=Tamia - You Put A Move On My Heart
TTITLE4=Mista - Blackberry Molasses
TTITLE5=Art 'N Soul - Ever Since You Went Away
TTITLE6=Brandy - Baby
TTITLE7=Karyn White - Can I Stay With You
TTITLE8=Nu Flavor - Open Arms
TTITLE9=Chaka Khan - Your Love Is All I Have
TTITLE10=Intro - Funny How Time Flies
TTITLE11=Aaliyah - If Your Girl Only Knew
TTITLE12=Silk - Hooked On You
TTITLE13=All-4-One - Tapestry
TTITLE14=Tevin Campbell - Could You Learn To Love
EXTD=
EXTT0=
EXTT1=
EXTT2=
EXTT3=
EXTT4=
EXTT5=
EXTT6=
EXTT7=
EXTT8=
EXTT9=
EXTT10=
EXTT11=
EXTT12=
EXTT13=
EXTT14=
PLAYORDER=
